<?xml version="1.0" encoding="utf-8"?>
<!-- Generator: Adobe Illustrator 27.3.1, SVG Export Plug-In . SVG Version: 6.00 Build 0)  -->
<svg version="1.1" id="Calque_1" xmlns="http://www.w3.org/2000/svg" xmlns:xlink="http://www.w3.org/1999/xlink" x="0px" y="0px"
	 viewBox="0 0 256 256" style="enable-background:new 0 0 256 256;" xml:space="preserve">
<style type="text/css">
	.st0{fill:#F7F7F4;}
	.st1{fill:#CCCCCC;}
	.st2{fill:#EFEEEA;}
	.st3{fill:#FFFFFF;}
	.st4{fill:#B2B2B2;}
	.st5{fill:#353564;}
	.st6{fill:#9D9D9C;}
	.st7{fill:#878787;}
	.st8{fill:#706F6F;}
	.st9{fill:#AFAFDE;}
	.st10{fill:#E9E9FF;}
</style>
<polygon class="st0" points="37.3,102 73.4,115.1 110.1,101.8 73.9,88.6 "/>
<path class="st1" d="M74.3,87.7h-0.7L37,101.1v1.8L73.1,116h0.7l36.6-13.3v-1.8L74.3,87.7z M73.9,89.7l33.3,12.1l-33.8,12.3
	L40.1,102L73.9,89.7z"/>
<polygon class="st2" points="37.3,102 73.4,115.1 73.4,157.5 37.3,144.4 "/>
<path class="st1" d="M37.6,101.1l-1.3,0.9v42.4l0.6,0.9l36.1,13.1l1.3-0.9v-42.4l-0.6-0.9L37.6,101.1z M38.3,103.3l34.2,12.4v40.4
	l-34.2-12.4V103.3z"/>
<polygon class="st0" points="73.6,72.3 109.7,85.4 146.3,72.1 110.2,59 "/>
<path class="st1" d="M110.5,58h-0.7L73.2,71.4v1.8l36.1,13.1h0.7L146.6,73v-1.8L110.5,58z M110.2,60l33.3,12.1l-33.8,12.3L76.4,72.3
	L110.2,60z"/>
<polygon class="st2" points="73.6,72.3 109.7,85.4 109.7,127.9 73.6,114.7 "/>
<path class="st1" d="M73.9,71.4l-1.3,0.9v42.4l0.6,0.9l36.1,13.1l1.3-0.9V85.4l-0.6-0.9L73.9,71.4z M74.5,73.7l34.2,12.4v40.4
	L74.5,114V73.7z"/>
<polygon class="st0" points="1,158 37.1,171.1 73.8,157.8 37.7,144.7 "/>
<path class="st1" d="M38,143.8h-0.7L0.7,157.1v1.8l36.1,13.1h0.7l36.6-13.3v-1.8L38,143.8z M37.7,145.7L71,157.8l-33.8,12.3L3.9,158
	L37.7,145.7z"/>
<polygon class="st2" points="1,158 37.1,171.1 37.1,213.6 1,200.4 "/>
<path class="st1" d="M1.4,157.1L0.1,158v42.4l0.6,0.9l36.1,13.1l1.3-0.9v-42.4l-0.6-0.9L1.4,157.1z M2,159.4l34.2,12.4v40.4L2,199.8
	V159.4z"/>
<polygon class="st2" points="37.3,171.2 73.4,184.3 73.4,226.8 37.3,213.6 "/>
<path class="st1" d="M37.6,170.3l-1.3,0.9v42.4l0.6,0.9l36.1,13.1l1.3-0.9v-42.4l-0.6-0.9L37.6,170.3z M38.3,172.6L72.4,185v40.4
	l-34.2-12.4V172.6z"/>
<polygon class="st0" points="37.3,128.3 73.4,141.5 110.1,128.1 73.9,115 "/>
<path class="st1" d="M74.3,114.1h-0.7L37,127.4v1.8l36.1,13.1h0.7l36.6-13.3v-1.8L74.3,114.1z M73.9,116l33.3,12.1l-33.8,12.3
	l-33.3-12.1L73.9,116z"/>
<polygon class="st2" points="37.3,128.3 73.4,141.5 73.4,183.9 37.3,170.8 "/>
<path class="st1" d="M37.6,127.4l-1.3,0.9v42.4l0.6,0.9l36.1,13.1l1.3-0.9v-42.4l-0.6-0.9L37.6,127.4z M38.3,129.7l34.2,12.4v40.4
	l-34.2-12.4V129.7z"/>
<polygon class="st3" points="218.5,158 218.5,200.4 255.1,187.1 255.1,144.6 "/>
<path class="st1" d="M254.8,143.7L218.1,157l-0.6,0.9v42.4l1.3,0.9l36.6-13.3l0.6-0.9v-42.4L254.8,143.7z M254.1,146v40.4L219.4,199
	v-40.4L254.1,146z"/>
<polygon class="st4" points="182.2,171.1 182.2,213.6 218.8,200.2 218.8,157.8 "/>
<path class="st1" d="M218.5,156.9l-36.6,13.3l-0.6,0.9v42.4l1.3,0.9l36.6-13.3l0.6-0.9v-42.4L218.5,156.9z M217.9,159.2v40.4
	l-34.7,12.6v-40.4L217.9,159.2z"/>
<polygon class="st4" points="145.9,184.3 145.9,226.8 182.6,213.4 182.6,171 "/>
<path class="st1" d="M182.2,170.1l-36.6,13.3l-0.6,0.9v42.4l1.3,0.9l36.6-13.3l0.6-0.9V171L182.2,170.1z M181.6,172.4v40.4
	l-34.7,12.6V185L181.6,172.4z"/>
<polygon class="st3" points="109.7,197.5 109.7,240 146.3,226.6 146.3,184.2 "/>
<path class="st1" d="M146,183.3l-36.6,13.3l-0.6,0.9V240l1.3,0.9l36.6-13.3l0.6-0.9v-42.4L146,183.3z M145.3,185.6v40.4l-34.7,12.6
	v-40.4L145.3,185.6z"/>
<polygon class="st2" points="73.6,184.4 109.7,197.5 109.7,240 73.6,226.8 "/>
<path class="st1" d="M73.9,183.5l-1.3,0.9v42.4l0.6,0.9l36.1,13.1l1.3-0.9v-42.4l-0.6-0.9L73.9,183.5z M74.5,185.8l34.2,12.4v40.4
	l-34.2-12.4V185.8z"/>
<polygon class="st4" points="218.5,115.1 218.5,157.5 255.1,144.2 255.1,101.8 "/>
<path class="st1" d="M254.8,100.9l-36.6,13.3l-0.6,0.9v42.4l1.3,0.9l36.6-13.3l0.6-0.9v-42.4L254.8,100.9z M254.1,103.1v40.4
	l-34.7,12.6v-40.4L254.1,103.1z"/>
<polygon class="st5" points="182.4,59.1 182.4,101.5 219,88.2 219,45.8 "/>
<path class="st1" d="M218.7,44.9L182,58.2l-0.6,0.9v42.4l1.3,0.9l36.6-13.3l0.6-0.9V45.8L218.7,44.9z M218,47.1v40.4l-34.7,12.6
	V59.8L218,47.1z"/>
<polygon class="st6" points="182.4,59.1 218.5,72.2 255.1,58.9 219,45.8 "/>
<path class="st1" d="M219.3,44.9h-0.7L182,58.2V60l36.1,13.1h0.7l36.6-13.3V58L219.3,44.9z M219,46.8l33.3,12.1l-33.8,12.3
	l-33.3-12.1L219,46.8z"/>
<polygon class="st4" points="218.5,72.2 218.5,114.7 255.1,101.3 255.1,58.9 "/>
<path class="st1" d="M254.8,58l-36.6,13.3l-0.6,0.9v42.4l1.3,0.9l36.6-13.3l0.6-0.9V58.9L254.8,58z M254.1,60.3v40.4l-34.7,12.6
	V72.9L254.1,60.3z"/>
<polygon class="st4" points="182.2,128.3 182.2,170.7 218.8,157.4 218.8,115 "/>
<path class="st1" d="M218.5,114l-36.6,13.3l-0.6,0.9v42.4l1.3,0.9l36.6-13.3l0.6-0.9V115L218.5,114z M217.9,116.3v40.4l-34.7,12.6
	V129L217.9,116.3z"/>
<polygon class="st7" points="182.2,85.4 182.2,127.9 218.8,114.5 218.8,72.1 "/>
<path class="st1" d="M218.5,71.2l-36.6,13.3l-0.6,0.9v42.4l1.3,0.9l36.6-13.3l0.6-0.9V72.1L218.5,71.2z M217.9,73.5v40.4l-34.7,12.6
	V86.1L217.9,73.5z"/>
<polygon class="st8" points="146.1,29.4 182.2,42.6 218.8,29.2 182.7,16.1 "/>
<path class="st1" d="M183.1,15.2h-0.7l-36.6,13.3v1.8l36.1,13.1h0.7l36.6-13.3v-1.8L183.1,15.2z M182.7,17.1L216,29.2l-33.8,12.3
	l-33.3-12.1L182.7,17.1z"/>
<polygon class="st7" points="182.2,42.6 182.2,85 218.8,71.7 218.8,29.2 "/>
<path class="st1" d="M218.5,28.3l-36.6,13.3l-0.6,0.9V85l1.3,0.9l36.6-13.3l0.6-0.9V29.2L218.5,28.3z M217.9,30.6V71l-34.7,12.6
	V43.3L217.9,30.6z"/>
<polygon class="st9" points="109.8,170.8 145.9,183.9 182.6,170.6 146.5,157.4 "/>
<path class="st1" d="M146.8,156.5h-0.7l-36.6,13.3v1.8l36.1,13.1h0.7l36.6-13.3v-1.8L146.8,156.5z M146.5,158.5l33.3,12.1
	l-33.8,12.3l-33.3-12.1L146.5,158.5z"/>
<polygon class="st4" points="145.9,141.5 145.9,183.9 182.6,170.6 182.6,128.1 "/>
<path class="st1" d="M182.2,127.2l-36.6,13.3l-0.6,0.9v42.4l1.3,0.9l36.6-13.3l0.6-0.9v-42.4L182.2,127.2z M181.6,129.5v40.4
	l-34.7,12.6v-40.4L181.6,129.5z"/>
<polygon class="st7" points="145.9,98.6 145.9,141.1 182.6,127.7 182.6,85.3 "/>
<path class="st1" d="M182.2,84.4l-36.6,13.3l-0.6,0.9v42.4l1.3,0.9l36.6-13.3l0.6-0.9V85.3L182.2,84.4z M181.6,86.7V127l-34.7,12.6
	V99.3L181.6,86.7z"/>
<polygon class="st10" points="110.2,128.2 146.3,141.3 146.3,183.8 110.2,170.6 "/>
<path class="st1" d="M110.5,127.3l-1.3,0.9v42.4l0.6,0.9l36.1,13.1l1.3-0.9v-42.4l-0.6-0.9L110.5,127.3z M111.2,129.6l34.2,12.4
	v40.4l-34.2-12.4V129.6z"/>
<polygon class="st7" points="109.7,154.7 109.7,197.1 146.3,183.8 146.3,141.3 "/>
<path class="st1" d="M146,140.4l-36.6,13.3l-0.6,0.9v42.4l1.3,0.9l36.6-13.3l0.6-0.9v-42.4L146,140.4z M145.3,142.7v40.4l-34.7,12.6
	v-40.4L145.3,142.7z"/>
<polygon class="st8" points="73.6,141.5 109.7,154.7 109.7,197.1 73.6,184 "/>
<path class="st1" d="M73.9,140.6l-1.3,0.9V184l0.6,0.9l36.1,13.1l1.3-0.9v-42.4l-0.6-0.9L73.9,140.6z M74.5,142.9l34.2,12.4v40.4
	l-34.2-12.4V142.9z"/>
<polygon class="st8" points="73.6,98.7 109.7,111.8 146.3,98.5 110.2,85.3 "/>
<path class="st1" d="M110.5,84.4h-0.7L73.2,97.8v1.8l36.1,13.1h0.7l36.6-13.3v-1.8L110.5,84.4z M110.2,86.4l33.3,12.1l-33.8,12.3
	L76.4,98.7L110.2,86.4z"/>
<polygon class="st7" points="109.7,111.8 109.7,154.2 146.3,140.9 146.3,98.5 "/>
<path class="st1" d="M146,97.6l-36.6,13.3l-0.6,0.9v42.4l1.3,0.9l36.6-13.3l0.6-0.9V98.5L146,97.6z M145.3,99.9v40.4l-34.7,12.6
	v-40.4L145.3,99.9z"/>
<polygon class="st8" points="73.6,98.7 109.7,111.8 109.7,154.2 73.6,141.1 "/>
<path class="st1" d="M73.9,97.8l-1.3,0.9v42.4l0.6,0.9l36.1,13.1l1.3-0.9v-42.4l-0.6-0.9L73.9,97.8z M74.5,100l34.2,12.4v40.4
	l-34.2-12.4V100z"/>
<polygon class="st5" points="109.8,42.6 109.8,85.1 146.5,71.7 146.5,29.3 "/>
<path class="st1" d="M146.1,28.4l-36.6,13.3l-0.6,0.9v42.4l1.3,0.9l36.6-13.3l0.6-0.9V29.3L146.1,28.4z M145.5,30.7V71l-34.7,12.6
	V43.3L145.5,30.7z"/>
<polygon class="st8" points="109.8,42.6 145.9,55.8 182.6,42.4 146.5,29.3 "/>
<path class="st1" d="M146.8,28.4h-0.7l-36.6,13.3v1.8l36.1,13.1h0.7l36.6-13.3v-1.8L146.8,28.4z M146.5,30.3l33.3,12.1l-33.8,12.3
	l-33.3-12.1L146.5,30.3z"/>
<polygon class="st7" points="145.9,55.8 145.9,98.2 182.6,84.9 182.6,42.4 "/>
<path class="st1" d="M182.2,41.5l-36.6,13.3l-0.6,0.9v42.4l1.3,0.9l36.6-13.3l0.6-0.9V42.4L182.2,41.5z M181.6,43.8v40.4l-34.7,12.6
	V56.4L181.6,43.8z"/>
<polygon class="st8" points="109.8,42.6 145.9,55.8 145.9,98.2 109.8,85.1 "/>
<path class="st1" d="M110.2,41.7l-1.3,0.9v42.4l0.6,0.9l36.1,13.1l1.3-0.9V55.8l-0.6-0.9L110.2,41.7z M110.8,44L145,56.4v40.4
	l-34.2-12.4V44z"/>
<ellipse class="st3" cx="205.2" cy="184.1" rx="7" ry="4.9"/>
<ellipse class="st3" cx="159.6" cy="72" rx="7" ry="4.9"/>
</svg>
